HIERARCHY
ROOT Hips
{
	OFFSET 0.00 0.00 0.00
	CHANNELS 6 Xposition Yposition Zposition Xrotation Yrotation Zrotation
	JOINT LeftUpLeg
	{
		OFFSET 3.64953 0.00000 0.00000
		CHANNELS 3 Xrotation Yrotation Zrotation
		JOINT LeftLeg
		{
			OFFSET 0.00000 -15.70580 0.00000
			CHANNELS 3 Xrotation Yrotation Zrotation
			JOINT LeftFoot
			{
				OFFSET 0.00000 -15.41867 0.00000
				CHANNELS 3 Xrotation Yrotation Zrotation
				JOINT LeftToeBase
				{
					OFFSET 0.00000 -1.53543 5.73033
					CHANNELS 3 Xrotation Yrotation Zrotation
					End Site
					{
						OFFSET 0.00000 0.00000 2.95275
					}
				}
			}
		}
	}
	JOINT RightUpLeg
	{
		OFFSET -3.64953 0.00000 0.00000
		CHANNELS 3 Xrotation Yrotation Zrotation
		JOINT RightLeg
		{
			OFFSET 0.00000 -15.70580 0.00000
			CHANNELS 3 Xrotation Yrotation Zrotation
			JOINT RightFoot
			{
				OFFSET 0.00000 -15.41867 0.00000
				CHANNELS 3 Xrotation Yrotation Zrotation
				JOINT RightToeBase
				{
					OFFSET 0.00000 -1.53543 5.73033
					CHANNELS 3 Xrotation Yrotation Zrotation
					End Site
					{
						OFFSET 0.00000 0.00000 2.95275
					}
				}
			}
		}
	}
	JOINT Spine
	{
		OFFSET 0.00000 0.03937 0.00000
		CHANNELS 3 Xrotation Yrotation Zrotation
		JOINT Spine1
		{
			OFFSET 0.00000 10.24829 0.00000
			CHANNELS 3 Xrotation Yrotation Zrotation
			JOINT Neck
			{
				OFFSET 0.00000 7.82687 0.00000
				CHANNELS 3 Xrotation Yrotation Zrotation
				JOINT Head
				{
					OFFSET 0.00000 6.90715 0.00000
					CHANNELS 3 Xrotation Yrotation Zrotation
					End Site
					{
						OFFSET 0.00000 4.52755 0.00000
					}
				}
			}
			JOINT LeftShoulder
			{
				OFFSET 0.00000 7.82687 0.00000
				CHANNELS 3 Xrotation Yrotation Zrotation
				JOINT LeftArm
				{
					OFFSET 6.71018 -0.00002 0.00000
					CHANNELS 3 Xrotation Yrotation Zrotation
					JOINT LeftForeArm
					{
						OFFSET 10.94419 -0.00004 0.00000
						CHANNELS 3 Xrotation Yrotation Zrotation
						JOINT LeftHand
						{
							OFFSET 8.52010 -0.00003 0.00000
							CHANNELS 3 Xrotation Yrotation Zrotation
							JOINT LeftHandThumb
							{
								OFFSET 0.00000 0.00000 0.00000
								CHANNELS 3 Xrotation Yrotation Zrotation
								End Site
								{
									OFFSET 0.00000 0.00000 3.93700
								}
							}
							JOINT L_Wrist_End
							{
								OFFSET 3.93700 -0.00001 0.00000
								CHANNELS 3 Xrotation Yrotation Zrotation
							}
						}
					}
				}
			}
			JOINT RightShoulder
			{
				OFFSET 0.00000 7.82687 0.00000
				CHANNELS 3 Xrotation Yrotation Zrotation
				JOINT RightArm
				{
					OFFSET -6.71018 -0.00002 0.00000
					CHANNELS 3 Xrotation Yrotation Zrotation
					JOINT RightForeArm
					{
						OFFSET -10.94419 -0.00004 0.00000
						CHANNELS 3 Xrotation Yrotation Zrotation
						JOINT RightHand
						{
							OFFSET -8.52010 -0.00003 0.00000
							CHANNELS 3 Xrotation Yrotation Zrotation
							JOINT RightHandThumb
							{
								OFFSET 0.00000 0.00000 0.00000
								CHANNELS 3 Xrotation Yrotation Zrotation
								End Site
								{
									OFFSET 0.00000 0.00000 3.93700
								}
							}
							JOINT R_Wrist_End
							{
								OFFSET -5.39369 -0.00002 0.00000
								CHANNELS 3 Xrotation Yrotation Zrotation
							}
						}
					}
				}
			}
		}
	}
}
MOTION
Frames: 11
Frame Time: 0.008333
 -2.7420 32.4471 7.5735 3.1760 6.0359 -3.6053 -15.5664 0.2103 6.2670 37.4341 -0.0000 0.0000 -25.5001 1.6453 2.8131 4.5136 0.0000 0.0000 5.1971 -14.1674 -0.1665 8.4781 0.0000 0.0000 -24.2293 -5.0395 -0.5899 2.6073 -0.0000 -0.0000 -3.6867 2.6606 1.2894 12.7377 0.7511 1.0466 1.9236 6.6188 -6.9303 6.8065 3.6801 1.9180 20.4618 13.2635 -5.7934 -23.0220 -18.0403 -85.0982 -0.0000 -9.6793 -0.0000 -38.6613 3.5964 -22.4650 -0.0000 0.0000 -0.0000 -0.0000 0.0000 -0.0000 14.8592 -18.3609 4.6942 -16.8565 33.0477 81.8302 -0.0001 15.2516 0.0000 -24.6714 -0.4694 9.8856 -0.0000 0.0000 0.0000 -0.0000 0.0000 0.0000
 -2.6454 32.4087 7.7060 3.2010 6.2003 -3.6382 -15.4143 0.6620 6.2523 37.2563 -0.0000 0.0000 -25.0622 1.0709 1.7279 4.4367 0.0000 0.0000 5.1970 -14.0835 -0.3000 8.9684 -0.0000 0.0000 -24.6681 -5.3556 -0.6553 2.7074 -0.0000 0.0000 -3.7183 2.7005 1.2606 12.7004 0.7909 1.0253 1.9951 6.5245 -6.8662 6.7615 3.6597 1.9851 20.5987 13.3568 -5.6054 -22.9766 -16.0336 -85.3978 -0.0000 -8.5785 -0.0000 -43.6918 5.0344 -25.3230 -0.0000 0.0000 -0.0000 -0.0000 0.0000 -0.0000 14.7384 -18.3951 4.6276 -16.9051 34.0159 83.1674 -0.0001 15.1583 0.0000 -24.9972 -0.6309 10.3131 0.0000 -0.0000 -0.0000 0.0000 -0.0000 -0.0000
 -2.5354 32.3700 7.8422 3.2185 6.4116 -3.5987 -15.1848 1.0439 6.1170 36.9650 -0.0000 0.0000 -24.3231 0.4922 0.4995 4.4918 0.0000 0.0000 5.0945 -14.1818 -0.5576 9.6707 -0.0000 0.0000 -25.1538 -5.5378 -0.7499 2.6318 0.0000 0.0000 -3.8046 2.6982 1.2237 12.7597 0.7860 0.9879 2.0670 6.4525 -6.8894 6.6979 3.6335 2.0361 20.4782 13.1035 -5.3321 -22.4621 -14.2276 -85.3080 -0.0000 -8.0226 -0.0000 -44.5421 6.1040 -27.2028 -0.0000 0.0000 -0.0000 -0.0000 0.0000 -0.0000 14.8893 -18.3841 4.5560 -17.3244 34.0985 84.4083 -0.0001 15.3273 0.0000 -26.8288 -0.8045 9.7375 -0.0000 -0.0000 0.0000 -0.0000 -0.0000 0.0000
 -2.4357 32.3339 7.9704 3.2503 6.5602 -3.5768 -15.0002 1.6839 6.0604 36.6451 -0.0000 0.0000 -23.3138 -0.3323 -0.2255 4.4166 -0.0000 0.0000 4.8345 -13.7463 -0.7863 10.6390 -0.0000 0.0000 -25.6876 -6.0693 -1.1761 2.4291 0.0000 0.0000 -3.8143 2.7751 1.1578 12.8181 0.8657 0.9631 1.7876 6.5133 -6.8794 7.0652 3.4804 2.1516 20.3053 13.0180 -5.2606 -21.9053 -13.5204 -84.8387 -0.0000 -8.0566 -0.0000 -42.1310 5.9650 -28.2501 -0.0000 0.0000 -0.0000 -0.0000 0.0000 -0.0000 15.1543 -18.4731 4.8216 -17.6737 32.0718 85.1056 -0.0001 15.7241 0.0000 -30.1348 -0.5124 7.5946 -0.0000 0.0000 0.0000 -0.0000 0.0000 0.0000
 -2.3017 32.2889 8.1029 3.2518 6.6634 -3.4835 -14.7224 2.2549 5.7968 36.3979 -0.0000 0.0000 -23.1991 -0.6214 0.7050 4.0443 -0.0000 0.0000 4.5008 -13.0782 -1.1570 11.7828 -0.0000 0.0000 -26.3859 -6.8404 -1.1437 2.5419 -0.0000 -0.0000 -3.8639 2.8244 1.1532 12.8603 0.9081 0.9121 1.8327 6.4904 -7.0664 7.0524 3.4668 2.3202 20.3840 12.7848 -5.2212 -21.3553 -13.2885 -84.2822 -0.0000 -8.7851 -0.0000 -37.7204 5.3451 -27.9036 0.0000 0.0000 -0.0000 0.0000 0.0000 -0.0000 15.1441 -18.3367 4.7154 -17.5667 29.1887 85.4943 -0.0001 15.9571 0.0000 -30.7976 0.0003 5.8238 0.0000 -0.0000 0.0000 0.0000 -0.0000 0.0000
 -2.1665 32.2362 8.2388 3.2159 6.6845 -3.4130 -14.3435 2.8098 5.6394 36.1946 -0.0000 0.0000 -23.7530 -0.3594 -0.1473 4.4537 0.0000 0.0000 3.9988 -12.5058 -1.5394 13.3298 -0.0000 0.0000 -27.1257 -7.3335 -1.8544 2.3092 0.0000 -0.0000 -3.8941 2.8496 1.1318 12.9574 0.9325 0.8820 1.7906 6.5990 -7.0706 7.0737 3.4605 2.1804 20.2938 12.9202 -5.1503 -20.7238 -14.0779 -83.7356 -0.0000 -9.6593 -0.0000 -31.5628 4.7229 -26.7186 -0.0000 -0.0000 0.0000 -0.0000 -0.0000 0.0000 15.2995 -18.2053 4.6535 -17.4672 27.0883 85.4162 -0.0001 16.2705 0.0000 -31.4082 0.9669 5.3192 0.0000 -0.0000 0.0000 0.0000 -0.0000 0.0000
 -2.0291 32.1771 8.3745 3.1754 6.7931 -3.4437 -14.0151 3.2856 5.5536 36.1407 -0.0000 0.0000 -24.3505 -0.3064 -0.4932 4.7729 0.0000 0.0000 3.4075 -11.8537 -1.8098 15.1630 0.0000 0.0000 -27.8869 -7.9938 -2.3814 2.1937 -0.0000 0.0000 -3.9165 2.8117 1.1666 12.9973 0.9079 0.9296 1.9703 6.5965 -7.0891 6.7583 3.5344 1.9740 20.1604 12.9777 -4.9880 -20.0110 -15.3239 -83.1415 -0.0000 -10.3569 -0.0000 -25.6095 3.8006 -25.8419 0.0000 0.0000 -0.0000 0.0000 0.0000 -0.0000 15.6085 -18.1600 4.6183 -17.5308 26.3806 85.0253 -0.0001 16.2692 0.0000 -31.6889 1.7747 5.6346 0.0000 0.0000 0.0000 0.0000 0.0000 0.0000
 -1.8739 32.1121 8.5018 3.1684 6.6859 -3.3207 -13.6350 3.8627 5.3039 35.9853 -0.0000 0.0000 -24.9100 -0.6076 -0.2517 4.8965 -0.0000 0.0000 2.6263 -10.8211 -2.2652 17.1478 -0.0000 0.0000 -28.7053 -8.8053 -2.8918 1.9067 -0.0000 -0.0000 -3.9398 2.8555 1.1377 13.0441 0.9488 0.8894 1.9713 6.7195 -7.2818 6.6801 3.6090 2.1377 20.4718 13.2459 -5.0543 -19.7045 -18.1566 -82.3952 -0.0000 -11.0385 -0.0000 -20.0830 3.4983 -24.4627 0.0000 0.0000 0.0000 0.0000 0.0000 0.0000 15.2782 -18.0503 4.3548 -16.8605 26.1753 84.3939 -0.0001 16.5258 0.0000 -32.2625 2.3948 5.9483 0.0000 -0.0000 0.0000 0.0000 -0.0000 0.0000
 -1.7210 32.0359 8.6231 3.1681 6.7394 -3.1660 -13.3399 4.3045 4.9950 35.9638 -0.0000 0.0000 -25.5024 -1.0629 0.2553 4.9111 0.0000 0.0000 1.7062 -9.9334 -2.7387 19.4833 0.0000 0.0000 -29.6480 -9.6217 -3.2613 1.8035 0.0000 -0.0000 -3.9229 2.7892 1.0001 13.0301 0.8921 0.8843 2.0735 6.8059 -7.2625 6.4088 3.7109 2.0334 20.6030 13.6226 -4.9636 -19.3458 -21.0619 -81.7615 -0.0000 -11.3009 -0.0000 -15.7370 3.2780 -23.4049 0.0000 0.0000 0.0000 0.0000 0.0000 0.0000 15.1881 -17.9423 4.2048 -16.4605 26.8692 83.5758 -0.0001 16.6228 0.0000 -32.6154 2.6795 6.3373 0.0000 -0.0000 0.0000 0.0000 -0.0000 0.0000
 -1.5679 31.9509 8.7444 3.1462 6.8190 -2.9615 -13.0079 4.5679 4.6220 35.9593 -0.0000 0.0000 -26.1891 -1.3966 0.4715 5.0920 -0.0000 0.0000 0.7308 -8.9366 -3.2270 22.0376 -0.0000 0.0000 -30.5559 -10.5108 -3.5255 1.7512 0.0000 -0.0000 -3.8509 2.7387 0.8122 12.9854 0.8553 0.8832 2.1515 6.8557 -7.2477 6.1262 3.7631 1.9261 20.6563 13.9534 -4.9226 -18.8541 -23.8731 -80.9481 -0.0000 -11.5452 -0.0000 -12.3874 3.3276 -22.7612 0.0000 -0.0000 0.0000 0.0000 -0.0000 0.0000 15.0495 -18.0425 4.1167 -16.0908 27.7580 82.6951 -0.0001 16.6257 0.0000 -32.4345 2.5061 7.0931 0.0000 0.0000 -0.0000 0.0000 0.0000 -0.0000
 -1.4078 31.8554 8.8652 3.0765 6.9260 -2.7104 -12.6017 4.5756 4.1573 35.9864 -0.0000 0.0000 -27.0371 -1.6650 0.3435 5.4190 0.0000 0.0000 -0.2836 -8.2537 -3.8183 24.7391 -0.0000 0.0000 -31.4527 -11.1526 -3.6126 1.3595 0.0000 0.0000 -3.7476 2.7039 0.5948 12.9025 0.8315 0.8670 2.3874 6.7658 -7.2771 5.6892 3.8373 1.9769 20.7831 14.1060 -4.6615 -18.5242 -26.7451 -80.3715 -0.0000 -11.5227 -0.0000 -8.8449 3.4517 -21.5586 0.0000 -0.0000 0.0000 0.0000 -0.0000 0.0000 14.9205 -18.0519 3.9032 -15.5898 28.7866 81.7706 -0.0001 16.6992 0.0000 -31.9872 2.1540 8.0871 -0.0000 0.0000 -0.0000 -0.0000 0.0000 -0.0000
